<?xml version="1.0" standalone="no"?><!DOCTYPE svg PUBLIC "-//W3C//DTD SVG 1.1//EN" "http://www.w3.org/Graphics/SVG/1.1/DTD/svg11.dtd"><svg t="1733323790116" class="icon" viewBox="0 0 1024 1024" version="1.1" xmlns="http://www.w3.org/2000/svg" p-id="53689" xmlns:xlink="http://www.w3.org/1999/xlink" width="128" height="128"><path d="M511.738424 512.27263m-511.72737 0a511.72737 511.72737 0 1 0 1023.45474 0 511.72737 511.72737 0 1 0-1023.45474 0Z" fill="#65B6DF" p-id="53690"></path><path d="M364.436924 678.69142a97.119074 97.119074 0 0 1-13.329418 0.91368c-53.800305 0-97.41381-43.617189-97.41381-97.421178 0-44.560343 29.930403-82.131768 70.780761-93.722246 6.469447-47.522436 47.216648-84.154391 96.511182-84.154391 17.024667 0 33.021443 4.362087 46.947702 12.032582 23.081484-42.522983 68.135509-71.388654 119.927928-71.388654 75.31969 0 136.374176 61.050802 136.374176 136.374176 0 5.168926-0.287367 10.275221-0.843681 15.293095 30.284086 16.5273 50.816107 48.646116 50.816107 85.569122 0 53.803989-43.602452 97.421178-97.402757 97.421179-4.53156 0-8.982068-0.309472-13.336788-0.913681H364.436924z" fill="#FFFFFF" p-id="53691"></path><path d="M646.937342 419.998273l-48.962957 25.572 6.834183 5.102611-48.484012 61.916587-23.32464-21.773594-32.564603 37.376162-22.875169-21.449386-48.082434 48.568748 18.936764 18.734133 29.838298-30.151455 24.124112 22.609907 32.59776-37.431425 24.407795 22.794117 66.787093-85.248597 6.974182 5.205768z" fill="#65B6DF" p-id="53692"></path></svg>