<?xml version="1.0" standalone="no"?><!DOCTYPE svg PUBLIC "-//W3C//DTD SVG 1.1//EN" "http://www.w3.org/Graphics/SVG/1.1/DTD/svg11.dtd"><svg t="1733323856415" class="icon" viewBox="0 0 1024 1024" version="1.1" xmlns="http://www.w3.org/2000/svg" p-id="56979" xmlns:xlink="http://www.w3.org/1999/xlink" width="128" height="128"><path d="M15.392 366.72c0 164.256 132.608 297.504 296.096 297.504 163.52 0 296.128-133.248 296.128-297.536s-132.512-297.504-296-297.504C148 69.184 15.36 202.4 15.36 366.688z" fill="#E9EAEB" p-id="56980"></path><path d="M866.304 248.032a74.976 74.976 0 0 1 54.496 21.216c14.592 14.08 22.912 33.536 23.104 53.856v487.744H96v-487.68c0-42.88 26.496-75.04 70.4-75.04h699.904v-0.096z" fill="#FFFFFF" p-id="56981"></path><path d="M960 827.328H79.68V323.2c0-53.76 35.616-91.232 86.528-91.232h700.192c24.512-0.704 48.32 8.64 65.92 25.824A91.84 91.84 0 0 1 960 323.2v504.128zM111.68 794.848H928V323.2a59.68 59.68 0 0 0-61.696-59.36H166.208c-33.12 0-54.496 23.104-54.496 59.392v471.68z" fill="#3B9CF5" p-id="56982"></path><path d="M15.68 810.848h992.224v26.72a101.76 101.76 0 0 1-101.504 101.984H127.808a111.68 111.68 0 0 1-79.296-33.056 113.184 113.184 0 0 1-32.896-79.68v-16H15.68z" fill="#FFFFFF" p-id="56983"></path><path d="M906.496 955.648H117.12C54.496 955.648 0 895.456 0 826.816v-31.968h1023.904v31.968c0 68.64-54.816 128.832-117.408 128.832zM31.712 827.328c0 45.504 36.896 96.448 85.376 96.448h789.44c48.768 0 85.376-50.944 85.376-96.448H31.68z" fill="#3B9CF5" p-id="56984"></path><path d="M447.808 859.168h176v32.16h-176v-32.16zM863.904 489.28h32v273.312h-32v-273.28zM175.68 762.592h-32V296.256h304.096v32.16H175.68v434.176z" fill="#3B9CF5" p-id="56985"></path><path d="M1007.904 135.488v258.144c0 26.24-21.12 47.424-47.2 47.424h-259.2l-97.12 124.288a16.064 16.064 0 0 1-28.48-9.92v-114.368h-31.808a48.64 48.64 0 0 1-48.32-48.544V135.488a48.352 48.352 0 0 1 48-48.224h416a48.16 48.16 0 0 1 48.128 48.224z" fill="#C3E2FF" p-id="56986"></path><path d="M592 587.648a32.32 32.32 0 0 1-10.688-1.792 31.872 31.872 0 0 1-21.6-30.432v-98.272H544a64.608 64.608 0 0 1-64.096-64.512V135.488c0-35.456 28.704-64.32 64-64.32h416c35.296 0 64 28.864 64 64.32v258.144a63.36 63.36 0 0 1-63.2 63.52h-251.008l-92.704 117.856a31.552 31.552 0 0 1-24.992 12.64zM543.808 103.36c-17.6 0-31.904 14.4-32 32.16v257.152c0 17.888 14.496 32.32 32.32 32.448h47.68v130.432l102.304-130.56h266.56a31.36 31.36 0 0 0 31.232-31.328V135.488c0-17.696-14.304-32.16-31.904-32.16H543.808z" fill="#3B9CF5" p-id="56987"></path><path d="M671.808 248.032h32v32.16h-32V248z m64.096 0h32v32.16h-32V248z m64 0h32v32.16h-32V248z" fill="#3B9CF5" p-id="56988"></path><path d="M367.68 585.76c-34.496 0-144.096 33.568-144.096 76.768v100.064h288v-100.064c0.224-43.008-109.376-76.8-143.872-76.8z" fill="#E9EAEB" p-id="56989"></path><path d="M527.808 762.592h-32v-100.064c0-27.04-92.8-60.8-128-60.8s-128 33.856-128 60.8v100.064h-32v-100.064c0-59.392 125.504-92.96 160-92.96 34.496 0 160 33.856 160 92.96v100.064z" fill="#3B9CF5" p-id="56990"></path><path d="M447.808 465.184c0-40-32.192-72.352-72-72.352a72.128 72.128 0 0 0-72 72.32v48.256c0 40 32.192 72.32 72 72.32a72.128 72.128 0 0 0 72-72.32v-48.224z" fill="#FFFFFF" p-id="56991"></path><path d="M375.68 601.824A88.224 88.224 0 0 1 288 513.408v-48.224a88.224 88.224 0 0 1 88-88.448 88.224 88.224 0 0 1 88 88.448v48.224a88.416 88.416 0 0 1-88.32 88.416z m0-192.928c-30.88 0-55.872 25.216-56 56.288v48.224c1.12 30.24 25.92 54.272 56 54.272 30.208 0 54.912-24 56-54.272v-48.224a56 56 0 0 0-56-56.288z" fill="#3B9CF5" p-id="56992"></path></svg>