<?xml version="1.0" standalone="no"?><!DOCTYPE svg PUBLIC "-//W3C//DTD SVG 1.1//EN" "http://www.w3.org/Graphics/SVG/1.1/DTD/svg11.dtd"><svg t="1733323618867" class="icon" viewBox="0 0 1024 1024" version="1.1" xmlns="http://www.w3.org/2000/svg" p-id="44409" xmlns:xlink="http://www.w3.org/1999/xlink" width="128" height="128"><path d="M735.289 56.889H288.71c-40.201 0-72.818 36.978-72.818 82.489v745.244c0 45.511 32.711 82.49 72.818 82.49H735.29c40.201 0 72.818-36.979 72.818-82.49V139.378c0.094-45.511-32.617-82.49-72.818-82.49z m-124.966 53.57l-4.74 43.615H440.51l-4.362-43.615z m150.566 784.403a17.067 17.067 0 0 1-16.119 17.92H279.23a17.067 17.067 0 0 1-16.119-17.92V129.138a17.161 17.161 0 0 1 16.119-17.92h91.875a37.926 37.926 0 0 0 0.948 6.258l13.464 56.888a30.72 30.72 0 0 0 28.444 24.842h218.075a30.72 30.72 0 0 0 28.918-24.936l13.559-57.932a36.883 36.883 0 0 0 0.758-4.836h68.836a17.161 17.161 0 0 1 16.118 17.92z" fill="#0097FF" p-id="44410"></path><path d="M592.593 825.742H431.407a26.738 26.738 0 0 0 0 53.57h161.186a26.738 26.738 0 0 0 0-53.57zM554.856 392.25a23.988 23.988 0 0 0-31.004 13.748l-76.705 197.784a23.988 23.988 0 0 0 13.748 31.478 24.462 24.462 0 0 0 8.628 1.612 23.988 23.988 0 0 0 22.376-15.36l76.99-198.258a23.988 23.988 0 0 0-14.033-31.004z m-194.56 123.638l39.254-53.57a23.988 23.988 0 0 0-38.685-28.444l-50.726 68.646a23.988 23.988 0 0 0 0.854 29.392l51.2 62.199a23.988 23.988 0 0 0 37.072-30.436z m293.263-82.963a23.988 23.988 0 1 0-37.263 30.436l39.348 47.407-39.348 53.95a23.988 23.988 0 1 0 38.685 28.444l50.346-68.55a23.893 23.893 0 0 0-0.853-29.393z" fill="#0097FF" p-id="44411"></path></svg>