<?xml version="1.0" standalone="no"?><!DOCTYPE svg PUBLIC "-//W3C//DTD SVG 1.1//EN" "http://www.w3.org/Graphics/SVG/1.1/DTD/svg11.dtd"><svg t="1733323826746" class="icon" viewBox="0 0 1476 1024" version="1.1" xmlns="http://www.w3.org/2000/svg" p-id="55917" xmlns:xlink="http://www.w3.org/1999/xlink" width="184.5" height="128"><path d="M450.981299 770.834625a60.700933 60.700933 0 0 1-29.829337-7.838277l-390.085323-219.422994a60.963022 60.963022 0 0 1 0-106.24949l390.085323-219.422995c29.347826-16.505485 66.503453-6.095083 83.008938 23.240552 16.505485 29.34173 6.095083 66.503453-23.240552 83.008938L185.272243 490.448609l295.64201 166.298249c29.335635 16.505485 39.746037 53.667207 23.240552 83.002843a60.920356 60.920356 0 0 1-53.173506 31.084924zM1019.244189 770.834625a60.926451 60.926451 0 0 1-53.374643-31.432344c-16.310443-29.445347-5.662332-66.540023 23.78911-82.850466l299.908567-166.103206-299.908567-166.103207c-29.451442-16.310443-40.099552-53.405119-23.78911-82.850466 16.310443-29.457537 53.405119-40.093457 82.850466-23.789109l396.180406 219.422994a60.944737 60.944737 0 0 1 0 106.639575l-396.180406 219.422995a60.688743 60.688743 0 0 1-29.475823 7.643234z" fill="#00CCC6" p-id="55918"></path><path d="M608.185685 1024a60.847215 60.847215 0 0 1-16.304348-2.2308c-32.438033-8.990248-51.448597-42.568061-42.464444-75.012189l249.89841-902.072311A60.932547 60.932547 0 0 1 874.327492 2.220256c32.438033 8.990248 51.448597 42.568061 42.464444 75.012189l-249.89841 902.07231c-7.478667 26.995123-31.993092 44.695245-58.707841 44.695245z" fill="#666666" p-id="55919"></path></svg>