<?xml version="1.0" standalone="no"?><!DOCTYPE svg PUBLIC "-//W3C//DTD SVG 1.1//EN" "http://www.w3.org/Graphics/SVG/1.1/DTD/svg11.dtd"><svg t="1733323092357" class="icon" viewBox="0 0 1024 1024" version="1.1" xmlns="http://www.w3.org/2000/svg" p-id="36468" xmlns:xlink="http://www.w3.org/1999/xlink" width="128" height="128"><path d="M561 464.6c12.7-10.6 19.1-25.4 19.1-44.4 0-34.9-25.5-52.3-76.4-52.3h-41.1v112.6h46.1c22.1 0 39.5-5.3 52.3-15.9zM577.7 569.6c-13.7-10.6-33.2-15.9-58.5-15.9h-56.7v124.9h57.6c24.5 0 43.6-5.7 57.5-17 13.8-11.4 20.7-27.1 20.7-47.3 0-19.2-6.9-34.1-20.6-44.7z" fill="#282828" p-id="36469"></path><path d="M512 102.3c-226.3 0-409.7 183.4-409.7 409.7S285.7 921.7 512 921.7 921.7 738.3 921.7 512 738.3 102.3 512 102.3z m144.2 612c-29.4 24.4-69.6 36.6-120.5 36.6H365.5V295.6h161.7c49.6 0 87.8 9.4 114.6 28.2 26.8 18.8 40.3 44.9 40.3 78.2 0 24.7-8.3 46.3-25 65-16.7 18.6-37.6 31.4-62.9 38.5v1.2c31.7 3.9 57.4 15.7 76.9 35.3 19.5 19.6 29.2 44.2 29.2 73.8 0 41.3-14.7 74.1-44.1 98.5z" fill="#282828" p-id="36470"></path></svg>