<?xml version="1.0" standalone="no"?><!DOCTYPE svg PUBLIC "-//W3C//DTD SVG 1.1//EN" "http://www.w3.org/Graphics/SVG/1.1/DTD/svg11.dtd"><svg t="1733322585194" class="icon" viewBox="0 0 1024 1024" version="1.1" xmlns="http://www.w3.org/2000/svg" p-id="5539" xmlns:xlink="http://www.w3.org/1999/xlink" width="128" height="128"><path d="M952.32 542.5664V465.98144h71.68v76.58496h-71.68z m0 71.4752h-76.8v-71.4752h76.8v71.4752z m-148.43904-71.4752V465.98144h71.68v76.58496h-71.68z m71.68-148.06016h76.8v71.4752h-76.8v-71.4752z m-184.27392 71.4752h71.68v76.58496h-71.68V465.98144z m0 148.06016h-65.32096l-11.45856-3.33312V542.5664h76.8v71.4752z m-148.43904-71.4752V465.98144h71.68v76.58496h-71.68z m71.68-148.06016h76.8v71.4752h-76.8v-71.4752zM502.30272 337.92a154.76736 154.76736 0 0 0-44.88704-58.30656q-43.29984-34.55488-105.23648-34.55488-85.5552 0-138.8288 61.26592T160.08192 504.73984q0 145.50528 52.48512 207.27808t136.46336 61.77792a155.86304 155.86304 0 0 0 106.5472-39.26528A173.78304 173.78304 0 0 0 495.32416 680.96h168.16128q-35.28704 108.79488-108.45184 164.2752Q474.4704 906.24 350.60224 906.24q-153.25696 0.04608-251.9296-104.39168T0 516.25472Q0 324.64896 99.2 218.624T360.05376 112.64q141.184 0 229.376 83.22048 52.46464 49.2032 78.73024 141.3376l-3.04128 0.72192h-162.816z" fill="#37BEF0" p-id="5540"></path></svg>