<?xml version="1.0" standalone="no"?><!DOCTYPE svg PUBLIC "-//W3C//DTD SVG 1.1//EN" "http://www.w3.org/Graphics/SVG/1.1/DTD/svg11.dtd"><svg t="1733323145689" class="icon" viewBox="0 0 1024 1024" version="1.1" xmlns="http://www.w3.org/2000/svg" p-id="39603" xmlns:xlink="http://www.w3.org/1999/xlink" width="128" height="128"><path d="M512 512m-448 0a448 448 0 1 0 896 0 448 448 0 1 0-896 0Z" fill="#FF0C15" p-id="39604"></path><path d="M881.44 519.776H157.568a29.248 29.248 0 0 0-34.944 26.24q1.056 13.728 3.2 27.168a396.8 396.8 0 0 0 785.024 0q2.4-16 3.456-32.672c-3.008-11.776-11.552-21.888-32.864-20.736z" fill="#FF6443" p-id="39605"></path><path d="M591.36 372.48l167.264-139.968-125.44-44.352L512 353.696m-10.24-0.864l94.72-164.672h-121.184l-49.472 173.216m-8.544 2.56l17.92-149.344-96.416 40.128 13.632 153.6m-8.512 7.68l-30.72-135.68-66.56 66.56 62.272 122.88m-8.512 11.936l-60.608-85.664-27.296 66.88 76.8 65.632m0 7.68l-76.8-49.408-5.12 69.984 87.04 29.856m0.864 16.416L212.48 577.28l18.784 56.32h74.24m5.12 9.376l-64 9.376 29.44 43.52 52.48-23.872" fill="#FAE7E3" p-id="39606"></path><path d="M640.736 418.848a211.52 211.52 0 0 0-144.96-64A201.376 201.376 0 0 0 361.6 706.24l158.112 4.128-66.56-133.12z" fill="#EEEEEE" p-id="39607"></path><path d="M528 715.712l-168.544-4.416-1.408-1.248a206.496 206.496 0 0 1 137.6-360.448 217.184 217.184 0 0 1 148.576 65.6l3.936 3.936-188.8 159.424z m-164.48-14.56l147.712 3.872L446.752 576l186.4-157.408a205.76 205.76 0 0 0-137.344-58.72 196.256 196.256 0 0 0-132.192 341.344z" fill="#EE4B2E" p-id="39608"></path><path d="M384.416 655.776c-133.536-186.016 67.488-261.504 79.296-270.496 14.432-11.008-242.88 57.12-103.232 284.16z" fill="#F04E31" p-id="39609"></path><path d="M663.04 403.2l-230.4 158.944 6.816 32.192 247.488-49.504-23.904-141.632z" fill="#EEEEEE" p-id="39610"></path><path d="M435.52 600.352l-8.608-40.352 239.84-165.44 26.048 154.496z m2.848-35.936l5.056 23.904 237.632-47.52-21.856-128.832z" fill="#EE4B2E" p-id="39611"></path><path d="M503.136 682.208c-125.76-21.376-137.056 13.696-137.056 13.696l-37.536 86.176s35.84-29.024 175.776 0l24.32-44.416z" fill="#DD0C13" p-id="39612"></path><path d="M451.904 691.2c-0.64-6.4-35.2-10.208-53.664-3.936-23.424 7.968-39.008 36.544-33.44 38.816a63.2 63.2 0 0 1 36-31.552c29.504-6.752 51.744 3.072 51.104-3.328z" fill="#FF6E4F" p-id="39613"></path><path d="M496.64 595.392a355.2 355.2 0 0 0 49.504 47.584 220.8 220.8 0 0 1 87.04 131.424c-3.424 34.144-63.136 56.32-63.136 56.32l-105.824-230.208z" fill="#EEEEEE" p-id="39614"></path><path d="M567.36 837.152l-110.624-240.672 42.24-6.656 1.824 2.592a347.808 347.808 0 0 0 48.384 46.432 224 224 0 0 1 89.024 134.624v1.408c-3.68 36.896-64 59.648-66.464 60.608z m-95.68-232.64l100.96 219.616c13.248-5.696 52.16-24.416 55.36-49.536a217.376 217.376 0 0 0-84.736-127.392l-0.32-0.224a382.08 382.08 0 0 1-48.544-46.048z" fill="#EE4B2E" p-id="39615"></path><path d="M896 407.744c0.8 12.608 1.088 25.344 0.8 38.208a446.272 446.272 0 0 1-636.8 393.6A411.52 411.52 0 0 0 896 407.744z" fill="#EAE0DF" opacity=".2" p-id="39616"></path><path d="M76.256 444.576A446.112 446.112 0 0 1 822.4 186.56s-160.288 191.328-338.688 253.024-407.456 4.992-407.456 4.992z" fill="#EAE0DF" opacity=".2" p-id="39617"></path><path d="M115.776 598.208a453.44 453.44 0 0 1-2.656-38.112C106.528 313.824 320.384 134.4 566.656 127.712a454.4 454.4 0 0 1 183.008 46.656 420.096 420.096 0 0 0-230.016-75.808c-227.2 6.08-425.792 169.6-419.712 396.8a411.936 411.936 0 0 0 15.84 102.848z" fill="#EAE0DF" opacity=".2" p-id="39618"></path></svg>