<?xml version="1.0" standalone="no"?><!DOCTYPE svg PUBLIC "-//W3C//DTD SVG 1.1//EN" "http://www.w3.org/Graphics/SVG/1.1/DTD/svg11.dtd"><svg t="1733323102048" class="icon" viewBox="0 0 1024 1024" version="1.1" xmlns="http://www.w3.org/2000/svg" p-id="37480" xmlns:xlink="http://www.w3.org/1999/xlink" width="128" height="128"><path d="M378.804907 998.683307c5.8368-1.6384 16.581973-3.1744 23.872853-3.39968l13.264213-0.41984v-17.312427c0-33.05472-21.691733-84.9408-47.254186-113.032533-4.164267-4.573867-18.691413-13.93664-32.28672-20.80768-24.098133-12.178773-25.463467-12.434773-54.821547-10.349227-16.554667 1.1776-39.656107 4.75136-51.329707 7.936-72.192 19.718827-183.722667-34.566827-183.87968-89.50784-0.058027-20.333227 8.820053-28.422827 37.86752-34.501973 34.97984-7.318187 59.009707-18.701653 61.6448-29.197654 4.027733-16.032427-1.037653-66.106027-7.983786-78.984533-4.89472-9.079467-6.570667-19.770027-6.621867-42.21952-0.06144-28.685653 0.546133-31.034027 13.236907-51.285333 7.314773-11.6736 20.79744-30.5152 29.965653-41.864534 15.540907-19.247787 16.75264-22.237867 17.974613-44.212906 1.41312-25.4464-8.147627-70.519467-21.121706-99.61472-14.6432-32.836267-12.506453-121.787733 4.553386-189.07136C193.30048 72.15104 227.915093 17.042773 249.371307 23.8592c7.109973 2.2528 7.560533 3.457707 32.044373 85.224107 7.23968 24.180053 8.205653 25.463467 29.801813 39.662933 35.689813 23.466667 68.430507 61.515093 101.505707 117.97504l9.161387 15.639893 34.82624 4.399787c59.050667 7.45472 128.232107 34.24256 166.01088 64.273067 7.714133 6.130347 16.46592 10.386773 19.456 9.458346 2.986667-0.925013 23.630507-9.939627 45.868373-20.026026 48.05632-21.797547 96.4608-38.058667 162.338133-54.51776 69.59104-17.39776 108.42112-24.46336 119.35744-21.71904 9.49248 2.38592 9.54368 2.56 7.348907 26.15296-2.491733 26.81856-17.210027 73.253547-33.307307 105.106773-24.68864 48.837973-85.346987 116.053333-142.98112 158.436693-25.965227 19.094187-27.2896 20.753067-29.426346 36.819627-17.861973 134.557013-54.1696 208.81408-148.466347 303.63648-44.192427 44.4416-47.670613 47.09376-86.715733 66.22208-53.220693 26.077867-80.769707 33.32096-150.3232 39.499093-13.776213 1.2288-15.33952 0.914773-7.072427-1.41312z m-274.41152-192.279894a570.026667 570.026667 0 0 1-8.5504-6.191786c-6.54336-4.799147-6.7072-4.724053-2.218667 1.00352 2.67264 3.403093 6.519467 6.188373 8.546987 6.188373s3.03104-0.45056 2.218666-1.000107z" fill="#FBC02D" p-id="37481"></path><path d="M378.804907 998.683307c5.8368-1.6384 16.581973-3.1744 23.872853-3.39968l13.264213-0.41984-0.04096-16.800427c-0.0512-19.575467-6.331733-45.114027-17.083733-69.413547-5.563733-12.57472-6.161067-16.00512-2.228907-12.741973 10.052267 8.3456 9.46176 0.467627-1.11616-14.865067-12.311893-17.844907-30.24896-32.90112-57.617066-48.34304-10.775893-6.08256-23.074133-15.059627-27.327147-19.94752-4.666027-5.372587-11.485867-8.88832-17.230507-8.88832-9.229653 0-9.069227 0.341333 5.280427 11.3664 8.133973 6.253227 14.789973 12.3904 14.789973 13.626027s-13.9264 3.24608-30.948693 4.4544c-17.022293 1.204907-40.495787 4.80256-52.169387 7.9872-72.192 19.718827-183.722667-34.566827-183.87968-89.50784-0.06144-20.333227 8.820053-28.422827 37.86752-34.49856 35.095893-7.34208 59.009707-18.694827 61.66528-29.279573 4.232533-16.861867-1.467733-69.041493-9.51296-87.108267-6.05184-13.58848-7.406933-22.248107-6.355626-40.676693 1.47456-25.91744 11.85792-46.127787 44.4416-86.493867 15.540907-19.247787 16.759467-22.234453 17.978026-44.212907 1.409707-25.442987-8.147627-70.519467-21.121706-99.61472-14.6432-32.82944-12.506453-121.787733 4.553386-189.07136C193.30048 72.15104 227.915093 17.03936 249.371307 23.852373c7.109973 2.256213 7.560533 3.46112 32.044373 85.224107 7.23968 24.183467 8.205653 25.463467 29.801813 39.662933 35.689813 23.47008 68.430507 61.515093 101.505707 117.97504l9.161387 15.643307 34.82624 4.399787c59.050667 7.45472 128.232107 34.24256 166.01088 64.273066 7.714133 6.130347 16.46592 10.386773 19.456 9.458347 2.986667-0.925013 23.627093-9.939627 45.868373-20.026027 48.05632-21.797547 96.4608-38.058667 162.338133-54.51776 69.59104-17.39776 108.42112-24.46336 119.35744-21.71904 9.49248 2.38592 9.540267 2.56 7.348907 26.15296-2.491733 26.81856-17.210027 73.253547-33.307307 105.106774-24.68864 48.837973-85.346987 116.053333-142.98112 158.436693-25.96864 19.094187-27.2896 20.753067-29.426346 36.819627-17.861973 134.557013-54.1696 208.81408-148.466347 303.63648-44.192427 44.4416-47.670613 47.09376-86.715733 66.22208-53.220693 26.077867-80.769707 33.32096-150.3232 39.499093-13.776213 1.2288-15.33952 0.91136-7.072427-1.41312z m97.235626-60.61056c51.930453-20.02944 101.024427-59.1872 132.334934-105.55392 36.922027-54.6816 63.597227-138.38336 73.17504-229.62176l4.573866-43.5712 24.1152-21.377707c26.043733-23.0912 55.45984-64.52224 75.49952-106.338987 15.39072-32.119467 15.776427-43.083093 1.764694-50.322773-22.091093-11.424427-93.627733-3.61472-157.907627 17.237333-44.294827 14.373547-50.3808 15.018667-67.06176 7.099734l-11.874987-5.632-25.797973 17.104213c-14.19264 9.407147-43.20256 34.228907-64.474453 55.15264-38.18496 37.57056-47.981227 44.05248-47.981227 31.761067 0-8.748373 48.923307-62.614187 84.08064-92.576427 23.005867-19.606187 31.696213-24.941227 40.676693-24.9856 8.277333-0.037547 10.007893-0.945493 6.301014-3.290453-2.809173-1.774933-12.434773-2.368853-21.384534-1.307307-13.7216 1.62816-20.135253 0.01024-40.86784-10.267307-13.530453-6.710613-41.311573-19.217067-61.73696-27.794773-33.6384-14.1312-39.8336-18.261333-65.774933-43.91936C337.943893 284.296533 315.050667 256.426667 302.813867 237.94688c-26.006187-39.294293-33.73056-48.387413-46.892374-55.23456-22.900053-11.912533-38.693547 6.949547-50.5344 60.371627-7.266987 32.77824-5.584213 100.46464 3.69664 148.650666 8.56064 44.45184 3.822933 63.627947-24.94464 100.87424-31.696213 41.045333-36.727467 67.140267-21.469866 111.332694 11.4176 33.047893 16.643413 67.495253 12.090026 79.6672-7.970133 21.2992-41.86112 45.981013-63.146666 45.981013-10.359467 0-10.888533 0.628053-8.751787 10.376533 2.710187 12.322133-8.23296 46.216533-14.926507 46.216534-6.724267 0-5.39648 5.9392 3.106134 13.858133 12.09344 11.267413 37.751467 21.807787 57.391786 23.575893 15.568213 1.406293 16.892587 1.071787 9.301334-2.34496a3341.653333 3341.653333 0 0 1-19.452587-8.871253l-10.612053-4.891307 14.148266 2.60096c23.528107 4.32128 72.731307 2.41664 99.7376-3.863893 13.99808-3.252907 34.235733-5.915307 44.960427-5.915307 36.867413 0 85.056853 25.009493 113.3056 58.80832 14.277973 17.083733 37.215573 64.846507 37.29408 77.656747 0.088747 15.059627 2.92864 15.1552 38.918827 1.276587z m-19.421866-146.466134c-116.374187-20.435627-130.348373-23.282347-135.563947-27.610453-9.693867-8.041813 9.045333-8.062293 108.465493-0.116053 53.797547 4.3008 98.768213 6.700373 99.93216 5.33504 1.160533-1.368747 3.81952-19.729067 5.89824-40.799574 2.082133-21.07392 4.744533-39.266987 5.915307-40.43776 5.833387-5.833387 9.478827 9.263787 12.980907 53.725867 4.324693 54.903467 3.464533 57.739947-18.285227 60.279467-6.679893 0.781653-42.38336-3.8912-79.342933-10.376534m-180.82816-101.638826c-2.863787-4.62848 7.048533-12.68736 38.877866-31.62112 33.184427-19.729067 73.68704-33.890987 111.264427-38.894934 45.776213-6.096213 58.426027 1.501867 20.8896 12.547414-14.353067 4.225707-20.48 8.37632-27.337387 18.527573-11.287893 16.725333-32.733867 32.26624-48.633173 35.249493-6.833493 1.28-23.07072 0.31744-36.08576-2.136746-21.807787-4.113067-24.951467-3.8912-40.147627 2.833066-11.07968 4.901547-17.250987 6.045013-18.824533 3.498667zM210.944 620.854613c-14.076587-19.974827-17.343147-39.819947-9.601707-58.34752 3.72736-8.925867 4.816213-19.019093 3.46112-32.129706-2.116267-20.503893 2.095787-27.716267 11.58144-19.84512 2.901333 2.409813 10.960213 14.5408 17.89952 26.95168 14.848 26.545493 16.92672 51.3024 6.853974 81.619626-7.816533 23.53152-14.564693 23.92064-30.194347 1.75104" fill="#FF9800" p-id="37482"></path><path d="M378.804907 998.683307c5.8368-1.6384 16.581973-3.1744 23.872853-3.39968 8.011093-0.256 13.277867-2.174293 13.30176-4.840107 0.013653-2.491733 18.172587-10.468693 41.557333-18.261333 52.524373-17.50016 86.101333-32.945493 116.548267-53.59616 99.0208-67.167573 163.590827-192.341333 163.69664-317.375147 0.034133-35.679573 1.092267-37.376 37.014187-59.0848 28.863147-17.442133 104.492373-93.515093 104.492373-105.106773 0-1.829547 4.973227-10.837333 11.052373-20.012374 13.6192-20.558507 35.4304-79.616 37.5296-101.632 1.4848-15.5648 1.102507-16.384-8.482133-18.213546-35.273387-6.73792-137.46176 19.07712-227.560107 57.48736-66.02752 28.153173-63.699627 27.921067-95.921493 9.530026-53.111467-30.303573-107.752107-51.58912-155.87328-60.719786-15.895893-3.013973-29.136213-5.85728-29.416107-6.321494-4.154027-6.703787-45.540693-61.45024-55.4496-73.345706-7.297707-8.7552-25.18016-26.187093-39.74144-38.74816-28.330667-24.4224-39.335253-41.1136-51.278506-77.74208-9.03168-27.70944-16.172373-39.191893-24.255147-38.980267-3.362133 0.088747-12.786347 7.809707-20.95104 17.148587-16.657067 19.070293-25.995947 47.813973-33.276587 102.4-5.717333 42.9056-2.020693 136.76544 7.471787 189.781333 10.683733 59.644587 5.870933 80.602453-25.14944 109.646507l-15.107413 14.148266 14.824106-18.193066c21.30944-26.149547 25.361067-35.669333 25.37472-59.61728 0.013653-22.20032-13.47584-78.926507-23.272106-97.870507-7.80288-15.086933-10.693973-83.797333-5.256534-124.962133 12.834133-97.1776 55.528107-186.24512 84.81792-176.954027 7.109973 2.259627 7.563947 3.46112 32.044374 85.22752 7.243093 24.180053 8.205653 25.463467 29.805226 39.662933 35.689813 23.466667 68.430507 61.515093 101.505707 117.97504l9.161387 15.639894 34.68288 4.38272c59.972267 7.570773 131.7888 36.12672 172.325546 68.512426l9.58464 7.656107 32.078507-14.906027c17.64352-8.198827 45.95712-20.258133 62.9248-26.801493 64.77824-24.989013 217.064107-61.791573 236.004693-57.0368 9.803093 2.4576 9.813333 2.48832 7.604907 26.217813-2.491733 26.815147-17.206613 73.250133-33.307307 105.106774-24.685227 48.837973-85.346987 116.053333-142.98112 158.436693-25.965227 19.090773-27.2896 20.753067-29.422933 36.819627-17.861973 134.557013-54.173013 208.81408-148.46976 303.63648-44.192427 44.4416-47.670613 47.09376-86.715733 66.22208-53.220693 26.077867-80.769707 33.314133-150.3232 39.499093-13.776213 1.221973-15.33952 0.91136-7.072427-1.416533z m-224.597334-158.057814c-28.194133-7.55712-70.4512-29.3888-84.957866-43.89888-24.715947-24.715947-30.79168-53.783893-14.353067-68.662613 3.662507-3.31776 17.124693-8.219307 29.91104-10.891947 29.969067-6.270293 50.517333-15.540907 65.35168-29.48096 6.529707-6.137173 14.086827-11.1616 16.800427-11.1616 17.175893 0-21.244587 39.6288-44.588374 45.991254-8.7552 2.38592-17.88928 4.89472-20.299093 5.577386-3.208533 0.907947-3.454293 3.67616-0.907947 10.37312 4.072107 10.71104-2.751147 30.242133-15.21664 43.554134l-7.789226 8.318293 10.612053 8.605013c37.700267 30.583467 80.715093 36.447573 152.18688 20.742827 44.014933-9.669973 45.25056-9.74848 56.7296-3.570347 21.036373 11.332267 17.861973 14.834347-15.571627 17.199787-16.851627 1.191253-39.396693 4.580693-50.097493 7.533227-24.15616 6.669653-52.401493 6.587733-77.81376-0.228694z m353.696427-45.841066c-2.9184-0.648533-40.7552-6.894933-84.084053-13.878614-83.718827-13.492907-90.25536-14.967467-87.323307-19.715413 1.969493-3.181227 3.549867-3.106133 117.886293 5.71392 39.625387 3.06176 74.028373 4.795733 76.45184 3.867307 2.8672-1.09568 5.290667-14.148267 6.93248-37.31456 2.461013-34.717013 6.918827-47.796907 10.707627-31.423147 1.030827 4.4544 3.36896 24.69888 5.198507 44.987733 4.194987 46.626133 2.730667 49.902933-22.022827 49.360214-10.14784-0.22528-20.831573-0.945493-23.749973-1.59744z m-214.500693-119.586134c33.4336-30.501547 112.36352-58.098347 159.003306-55.6032 8.983893 0.48128 4.427093 6.161067-7.253333 9.035094-5.36576 1.32096-19.408213 12.499627-31.204693 24.838826-26.763947 27.99616-40.864427 32.93184-74.799787 26.187094-18.414933-3.662507-24.804693-3.652267-33.95584 0.023893-23.381333 9.396907-25.941333 8.424107-11.789653-4.481707m-80.257707-61.32736c-14.209707-22.388053-15.766187-33.430187-7.499093-53.20704 3.918507-9.386667 4.788907-18.42176 3.085653-32.068266-2.136747-17.114453-1.7408-18.875733 4.037973-17.762987 3.525973 0.682667 12.014933 10.786133 18.865494 22.452907 15.619413 26.610347 18.59584 54.4768 8.6528 81.053013-3.577173 9.56416-8.229547 17.9712-10.3424 18.670933-2.116267 0.70656-9.673387-7.908693-16.800427-19.13856m202.796373-112.298666c0-6.877867 43.810133-56.265387 69.36576-78.196054 31.32416-26.88 40.973653-33.34144 49.810774-33.34144 14.394027 0 8.861013 9.489067-15.7184 26.938027-13.134507 9.3184-40.475307 33.334613-60.767574 53.364053-20.288853 20.032853-38.1952 36.420267-39.789226 36.420267s-2.901333-2.33472-2.901334-5.188267z" fill="#263238" p-id="37483"></path></svg>