<?xml version="1.0" standalone="no"?><!DOCTYPE svg PUBLIC "-//W3C//DTD SVG 1.1//EN" "http://www.w3.org/Graphics/SVG/1.1/DTD/svg11.dtd"><svg t="1733322765280" class="icon" viewBox="0 0 2717 1024" version="1.1" xmlns="http://www.w3.org/2000/svg" p-id="16369" xmlns:xlink="http://www.w3.org/1999/xlink" width="339.625" height="128"><path d="M467.44671465 360.8957335c-4.05649034 0-5.07061331-2.02824517-3.04236738-5.07061332l21.29657394-27.38131022c2.02824517-3.04236814 7.09885849-5.07061331 11.15534884-5.07061255h362.04176676c4.05649034 0 5.07061331 3.04236814 3.04236814 6.08473552l-17.24008435 26.36718725c-2.02824517 3.04236814-7.09885849 6.08473552-10.14122585 6.08473551zM314.31420297 454.19501219c-4.05649034 0-5.07061331-2.02824517-3.04236814-5.07061331l21.29657469-27.38131022c2.02824517-3.04236814 7.09885849-5.07061331 11.15534884-5.07061254h462.4399032c4.05649034 0 6.08473552 3.04236814 5.07061331 6.08473551l-8.11298069 24.33894208c-1.01412297 4.05649034-5.07061331 6.08473552-9.12710366 6.08473551zM559.73187116 547.49429091c-4.05649034 0-5.07061331-3.04236814-3.04236814-6.08473553l14.1977162-25.35306503c2.02824517-3.04236814 6.08473552-6.08473552 10.14122664-6.08473553h202.82451879c4.05649034 0 6.08473552 3.04236814 6.08473552 7.09885849l-2.02824517 24.33894207c0 4.05649034-4.05649034 7.09885849-7.09885773 7.09885772zM1612.39112574 342.64152617c-63.88972332 16.22596138-107.49699492 28.39543242-170.37259604 44.62139456-15.21183918 4.05649034-16.22596138 5.07061331-29.40955539-10.14122586-15.21183918-17.24008436-26.36718725-28.39543242-47.66376194-38.53665905-63.88972332-31.43780056-125.75120225-22.31069689-183.55619004 15.21183918-68.96033663 44.62139456-104.45462754 110.53936306-103.44050457 192.68329294 1.01412297 81.12980767 56.79086561 148.06189913 136.9065503 159.21724797 68.96033663 9.12710366 126.76532444-15.21183918 172.40084121-66.93209147 9.12710366-11.15534884 17.24008436-23.32481987 27.38131022-37.52253607H1218.9115584c-21.29657469 0-26.36718725-13.183594-19.26832952-30.42367759 13.183594-31.43780056 37.52253608-84.17217581 51.72025229-110.53936306 3.04236814-6.08473552 10.14122587-16.22596138 25.35306504-16.22596138h369.14062525c-2.02824517 27.38131022-2.02824517 54.76262043-6.08473551 82.14392987-11.15534884 73.01682698-38.53665828 139.94891844-83.15805284 198.76802922-73.01682698 96.34164686-168.34435087 156.17487983-289.02493979 172.4008412-99.38401422 13.183594-191.66917073-6.08473552-272.7989784-66.93209145-75.04507216-56.79086561-117.63822078-131.83593775-128.79356962-225.13521647-13.183594-110.53936306 19.26832953-209.92337729 86.20042022-297.13792048C1024.20002031 213.84795656 1119.52754418 154.01472358 1236.15164276 132.71814888c95.32752388-17.24008436 186.59855742-6.08473552 268.74248806 49.69200712 53.74849746 35.49429091 92.2851565 84.17217581 117.63822077 142.99128659 6.08473552 9.12710366 2.02824517 14.19771621-10.14122585 17.24008358z" fill="#00ACD7" p-id="16370"></path><path d="M1948.06570526 903.45132216c-92.2851565-2.02824517-176.45733156-28.39543242-247.44591337-89.24278837-59.83323298-51.72025228-97.35576906-117.63822078-109.52524086-195.72566108-18.25420656-114.5958534 13.183594-216.00811281 82.14393065-306.26502414 74.03094919-97.35576906 163.27373831-148.06189913 283.95432647-169.35847382 103.44050457-18.25420656 200.7962744-8.11298069 289.02494055 51.72025228 80.11568547 54.76262043 129.80769258 128.79356962 142.99128582 226.14933944 17.24008436 136.90655031-22.31069689 248.46003633-116.62409857 343.78756021-66.93209146 67.94621367-149.07602133 110.53936306-243.38942302 129.80769182-27.38131022 5.07061331-54.76262043 6.08473552-81.12980767 9.12710366zM2189.42688311 493.74579344c-1.01412297-13.183594-1.01412297-23.32481987-3.04236815-33.46604572-18.25420656-100.39813719-110.53936306-157.18900203-206.88100914-134.87830514-94.31340168 21.29657469-155.16075685 81.12980767-177.47145452 176.45733155-18.25420656 79.1015625 20.28245172 159.21724797 93.2992787 191.66917074 55.77674263 24.33894207 111.55348525 21.29657469 165.3019835-6.08473551 80.11568547-41.57902642 123.72295706-106.48287272 128.79356961-193.69741592z" fill="#00ACD7" p-id="16371"></path></svg>