<?xml version="1.0" standalone="no"?><!DOCTYPE svg PUBLIC "-//W3C//DTD SVG 1.1//EN" "http://www.w3.org/Graphics/SVG/1.1/DTD/svg11.dtd"><svg t="1733322803660" class="icon" viewBox="0 0 1024 1024" version="1.1" xmlns="http://www.w3.org/2000/svg" p-id="19437" xmlns:xlink="http://www.w3.org/1999/xlink" width="128" height="128"><path d="M423.56985 112.982491L230.802377 2.146794a16.023956 16.023956 0 0 0-16.023956 0L22.010948 112.982491C16.626963 115.962483 14.07097 120.66647 13.99897 126.890453v659.336197a16.099956 16.099956 0 0 0 8.047978 13.909962l385.572946 221.661394c5.571985 2.959992 10.255972 2.899992 15.987956 0.038L809.176796 800.172612a15.979956 15.979956 0 0 0 8.049978-13.909962V575.757226l184.719495-106.20771A15.979956 15.979956 0 0 0 1009.996247 455.641554V235.850155c0-3.969989-2.385993-10.629971-8.195978-13.909962l-192.767473-110.829697a16.023956 16.023956 0 0 0-16.023956 0l-192.767473 110.829697c-5.259986 2.993992-8.011978 7.879978-8.011978 13.909962v210.505424l-160.647561 92.371748V126.888453c0-4.839987-2.839992-11.13797-8.011978-13.907962z m-8.231977 654.78421l-160.351562-90.609753 353.157034-203.019444 160.499562 92.259747L415.337873 767.768701z m369.546989-411.798874v182.7595l-160.681561-92.371748v-182.7595l160.681561 92.369748z m16.061956-212.453419l160.571561 92.335747-160.571561 92.333748-160.571561-92.333748 160.571561-92.335747zM238.668356 649.561024V247.006125l160.68156-92.371748v402.5169l-160.68156 92.407747z m-16.059956-614.966319l160.571561 92.333748-160.573561 92.335747-160.571561-92.335747 160.571561-92.333748z m208.827429 945.551415v-184.595495l353.451033-201.479449v182.8735L431.435829 980.14412z m385.570945-441.416793v-182.7595l160.683561-92.373748v182.7615l-160.683561 92.371748z m-417.582858 256.819298v184.561495L45.864883 776.942676V154.634377l160.679561 92.371748V686.560923l192.879472 108.987702z" fill="#F52D21" p-id="19438"></path></svg>