<?xml version="1.0" standalone="no"?><!DOCTYPE svg PUBLIC "-//W3C//DTD SVG 1.1//EN" "http://www.w3.org/Graphics/SVG/1.1/DTD/svg11.dtd"><svg t="1733322727052" class="icon" viewBox="0 0 1024 1024" version="1.1" xmlns="http://www.w3.org/2000/svg" p-id="13065" xmlns:xlink="http://www.w3.org/1999/xlink" width="128" height="128"><path d="M448 256v320h448v192h96V256z" fill="#212121" opacity=".1" p-id="13066"></path><path d="M992 256H448v64h512v448h-64v64h96l32-32v-512z" fill="#212121" opacity=".75" p-id="13067"></path><path d="M448 128v128h512V128z" fill="#212121" opacity=".1" p-id="13068"></path><path d="M992 64h-832l-32 32V128h832v128H448v64h544l32-32v-192z" fill="#212121" p-id="13069"></path><path d="M384 576H0V192h384z m448 448H448v-384h384z m-448 0H0v-384h384z" fill="#212121" p-id="13070"></path><path d="M258.752 256h86.464v268.8h-59.84V364.032q0-26.112 2.24-57.6h-1.472a288 288 0 0 1-8.448 35.648L214.656 524.8h-49.472l-64-180.928a362.176 362.176 0 0 1-8.448-37.504h-1.792q2.368 39.744 2.432 69.76V524.8H38.784V256h88.704l54.976 159.36a225.152 225.152 0 0 1 9.536 38.4h1.152a367.296 367.296 0 0 1 10.688-38.848zM128 972.8h60.544v-104.384h87.232V819.2H188.544v-65.856h94.912V704H128z m532.096-227.776a117.44 117.44 0 0 1 61.504 16.128v-58.304a192.576 192.576 0 0 0-66.368-9.92 139.264 139.264 0 0 0-103.36 40.128A141.952 141.952 0 0 0 512 837.696a133.056 133.056 0 0 0 35.456 96.704 129.536 129.536 0 0 0 97.28 36.352 177.6 177.6 0 0 0 76.8-14.208v-55.36a125.568 125.568 0 0 1-64.832 17.28 77.44 77.44 0 0 1-59.072-23.104A86.784 86.784 0 0 1 576 833.408a88.384 88.384 0 0 1 23.232-64.512 81.728 81.728 0 0 1 60.864-23.808z" fill="#FFFFFF" p-id="13071"></path></svg>