<?xml version="1.0" standalone="no"?><!DOCTYPE svg PUBLIC "-//W3C//DTD SVG 1.1//EN" "http://www.w3.org/Graphics/SVG/1.1/DTD/svg11.dtd"><svg t="1733322829195" class="icon" viewBox="0 0 1024 1024" version="1.1" xmlns="http://www.w3.org/2000/svg" p-id="21436" xmlns:xlink="http://www.w3.org/1999/xlink" width="128" height="128"><path d="M746.779541 535.929453c-40.183422-50.116402-44.246914-126.871252-9.93298-181.954144 27.992945-44.698413 43.795414-40.183422 55.082892-58.694886-124.613757-142.673721-227.555556-22.123457-293.474427-40.183421-37.925926-10.38448-62.758377-28.444444-102.941798-27.992946-201.368607 2.257496-250.582011 288.959436-77.657849 502.518519 76.75485 95.266314 118.744268 38.377425 181.051147 26.186949 89.848325-17.608466 133.643739 69.530864 212.656084-0.451499 25.73545-23.026455 87.590829-114.229277 98.878307-165.700177-13.093474-14.447972-32.507937-15.35097-63.661376-53.728395z" p-id="21437"></path><path d="M618.553792 168.86067c22.574956-29.347443 42.892416-68.176367 41.08642-118.744268-71.78836-7.675485-163.89418 88.945326-147.188713 165.700176 40.634921 6.772487 91.654321-28.444444 106.102293-46.955908z" p-id="21438"></path><path d="M62.758377 837.079365c-37.022928 4.514991-53.728395 32.056437-49.213403 73.142857 4.063492 37.474427 26.638448 56.888889 68.176366 52.825397 37.925926-3.611993 53.276896-32.507937 49.664903-73.594356-3.160494-37.022928-27.992945-56.888889-68.627866-52.373898z m16.253969 98.426808c-21.220459 4.96649-30.250441-11.287478-31.153439-29.798942-1.354497-20.31746 1.805996-37.022928 19.414462-41.08642 37.925926-9.481481 39.280423 64.564374 11.738977 70.885362zM219.428571 865.975309c-7.675485-0.902998-13.996473-1.805996-21.220458 1.354497-2.708995 1.354497-4.514991 2.257496-6.772487 4.063492l-7.675485 6.772487c0.451499-13.093474 2.708995-34.765432 0.451499-46.955908h-32.056437v130.934744c33.410935 0 21.671958 1.354497 30.70194-9.029983 4.96649 2.257496 15.802469 15.35097 36.119929 9.029983 10.835979-3.611993 18.511464-13.996473 22.123457-27.089947 6.320988-23.477954 4.063492-55.534392-21.671958-69.079365z m-16.705467 70.885361c-27.089947 1.805996-19.414462-41.989418-9.481481-45.601411 12.641975-4.514991 16.253968 6.772487 17.156966 17.156967 0.902998 13.996473-0.451499 20.31746-7.675485 28.444444zM948.148148 902.546737c-0.451499-16.253968 4.063492-30.250441 14.447972-36.119929 12.641975-7.223986 27.992945 0.451499 39.280423 4.514991l9.481482-25.283951c-14.447972-11.738977-56.43739-15.35097-78.109348 5.41799-9.029982 8.578483-14.447972 16.705467-17.156966 32.959435-3.611993 18.511464-0.451499 31.604938 3.611993 47.858907 6.772487 9.029982 11.287478 23.929453 34.313933 29.347443 9.029982 2.257496 18.962963 2.708995 27.992945 1.354497 9.481481-0.902998 18.511464-4.96649 24.380952-5.869489v-28.444444c-31.153439 10.835979-57.340388 15.802469-58.243386-25.73545zM828.049383 872.747795c-15.35097-10.835979-35.216931-8.578483-53.276896-3.611993-2.257496 2.708995-3.611993 2.708995-7.223986 5.41799l-6.320988 6.320988c-11.738977 14.899471-12.641975 45.601411-0.902998 63.661375 6.320988 9.932981 18.059965 16.705467 35.216931 18.511464 48.310406 4.063492 41.537919-10.835979 42.892416-29.798942-18.511464 3.611993-51.0194 17.156966-52.825396-10.835979l58.243386-0.451499c0-20.768959 0-38.377425-15.802469-49.213404z m-41.989418 29.798942c2.257496-20.31746 25.73545-21.220459 27.992945 0h-27.992945zM395.964727 878.617284c-8.126984-9.932981-23.477954-15.802469-41.989418-13.093474-29.798942-3.160494-48.761905 37.474427-36.571429 70.885361 16.253968 42.892416 73.142857 22.574956 81.269841 21.671958l0.451499-24.380953c-16.705467 5.417989-51.0194 14.899471-51.922398-10.384479h58.243386c0-17.156966 0-33.410935-9.481481-44.698413zM347.654321 902.546737c1.805996-9.932981 4.063492-15.802469 14.899471-15.35097 9.481481 0.451499 12.190476 6.320988 13.544973 15.35097H347.654321zM692.599647 932.345679l-18.059964-65.918871h-18.962963c-18.962963-0.451499-14.899471-0.451499-13.996473 4.96649l27.089947 70.433862c1.805996 4.063492 2.708995 7.675485 4.063492 11.287478 4.514991 12.190476 1.354497 9.481481 36.11993 9.481482l35.66843-96.169312-33.862434 0.451499c-4.96649 20.31746-15.802469 44.698413-18.059965 65.467372zM554.440917 890.80776l23.026455-0.451499v-23.929453h-23.026455v-18.962963H532.768959c-5.417989 16.253968-9.029982 23.477954-22.574955 29.347442l0.451499 13.996473 10.835978 0.451499v46.05291c3.160494 13.544974 5.417989 21.671958 18.962963 25.283951 17.608466 4.514991 25.283951-2.257496 37.925926-2.257496l0.451499-24.832451c-29.798942 5.869489-24.380952 2.708995-24.380952-44.698413zM461.883598 893.065256c9.029982-5.869489 21.671958 0.451499 29.798942 3.160494l9.029982-23.026455c-8.578483-7.675485-89.848325-28.444444-78.560847 59.597883 7.223986 14.899471 9.932981 24.380952 27.992946 29.347443 17.608466 4.96649 33.862434 1.805996 47.858906-5.869489l-0.451499-26.186949c-46.955908 29.347443-52.825397-25.73545-35.66843-37.022927zM262.772487 865.975309v66.821869c0 41.989418 4.063492 46.504409-20.317461 43.343915l0.4515 25.73545c36.571429 6.320988 52.373898-4.063492 51.922398-40.63492v-94.814815h-32.056437zM595.978836 867.329806v94.814815l32.507936 0.902998v-96.620811zM854.687831 902.998236v25.283951c6.320988 1.805996 39.731922 1.805996 46.955908 0v-24.832452l-46.955908-0.451499zM603.202822 829.40388c-8.126984 3.160494-10.38448 14.899471-5.41799 22.123457 3.611993 4.96649 16.253968 6.772487 24.380953 3.611993 16.253968-6.772487 6.320988-36.119929-18.962963-25.73545zM274.511464 827.597884l-9.481482 2.257495c-8.578483 22.123457 8.578483 32.959436 25.283951 23.477954 11.287478-6.320988 8.578483-30.250441-15.802469-25.735449z" p-id="21439"></path></svg>