<?xml version="1.0" standalone="no"?><!DOCTYPE svg PUBLIC "-//W3C//DTD SVG 1.1//EN" "http://www.w3.org/Graphics/SVG/1.1/DTD/svg11.dtd"><svg t="1733322702363" class="icon" viewBox="0 0 1024 1024" version="1.1" xmlns="http://www.w3.org/2000/svg" p-id="11978" xmlns:xlink="http://www.w3.org/1999/xlink" width="128" height="128"><path d="M381.812364 299.52C406.016 152.110545 454.516364 51.2 499.293091 51.2c44.823273 0 93.323636 100.910545 117.527273 248.32h-235.054546zM378.321455 66.56A447.441455 447.441455 0 0 0 101.003636 299.52h205.218909c14.382545-94.813091 39.098182-175.802182 72.09891-232.913455z m314.088727 232.913455h205.172363a447.162182 447.162182 0 0 0-277.271272-232.913455c33.000727 57.111273 57.716364 138.100364 72.098909 232.913455zM306.222545 699.112727h-205.265454c55.249455 112.407273 155.741091 198.190545 277.364364 232.773818-33.047273-56.971636-57.716364-138.007273-72.145455-232.773818z m591.36 0c-55.202909 112.407273-155.694545 198.190545-277.271272 232.773818 32.907636-57.064727 57.716364-138.007273 72.098909-232.866909h205.172363v0.093091z m-398.289454 248.273455c44.823273 0 93.323636-100.864 117.527273-248.273455h-235.054546c24.203636 147.409455 72.750545 248.273455 117.527273 248.273455zM96.023273 349.928727a44.869818 44.869818 0 0 0-44.823273 44.776728v209.082181c0 24.808727 20.107636 44.823273 44.823273 44.823273h405.085091l-44.218182-35.607273a102.4 102.4 0 0 1-15.872 1.210182c-13.125818 0-25.134545-2.327273-36.026182-6.981818a81.175273 81.175273 0 0 1-28.299636-20.200727 95.557818 95.557818 0 0 1-18.478546-32.302546 132.235636 132.235636 0 0 1-6.516363-42.821818v-9.914182c0-15.965091 2.187636-30.208 6.516363-42.821818 4.375273-12.567273 10.472727-23.365818 18.385455-32.256 7.819636-8.890182 17.221818-15.685818 28.113454-20.386909 10.891636-4.701091 22.900364-6.981818 35.979637-6.981818 13.218909 0 25.227636 2.280727 36.026181 6.981818 10.891636 4.654545 20.293818 11.496727 28.299637 20.386909 7.912727 8.890182 14.103273 19.688727 18.385454 32.302546 4.282182 12.474182 6.516364 26.810182 6.516364 42.821818v9.867636c0 15.918545-2.234182 30.114909-6.516364 42.821818-4.189091 12.567273-10.286545 23.365818-18.199272 32.302546a77.032727 77.032727 0 0 1-11.636364 10.565818l34.816 27.601454-26.996364 23.412364h401.314909a44.776727 44.776727 0 0 0 44.823273-44.823273V394.705455a44.869818 44.869818 0 0 0-44.823273-44.776728H96.023273z m390.283636 151.970909v10.24c0 10.984727-0.977455 20.759273-3.025454 29.277091-1.954909 8.378182-4.980364 15.499636-8.843637 21.410909a39.377455 39.377455 0 0 1-14.242909 13.079273 39.703273 39.703273 0 0 1-19.176727 4.421818 42.356364 42.356364 0 0 1-19.549091-4.421818 39.563636 39.563636 0 0 1-14.242909-13.079273 69.911273 69.911273 0 0 1-8.843637-21.410909 128.791273 128.791273 0 0 1-2.978909-29.323636v-10.193455c0-11.077818 1.024-20.898909 2.978909-29.323636a63.301818 63.301818 0 0 1 8.843637-21.178182 37.981091 37.981091 0 0 1 33.559273-17.268363 37.981091 37.981091 0 0 1 33.605818 17.314909c3.909818 5.678545 6.935273 12.753455 8.890182 21.178181 2.048 8.378182 3.025455 18.152727 3.025454 29.323637zM157.090909 402.618182H101.003636v208.896h42.914909v-59.392l-4.328727-97.000727 56.506182 156.392727h29.230545l56.459637-156.392727-4.282182 97.000727v59.392h43.008V402.618182H264.285091l-53.666909 153.367273-53.527273-153.367273z m491.799273 33.698909v175.197091h-42.868364V436.317091h-63.301818V402.618182H713.216v33.698909H648.843636z m184.506182 175.197091V436.317091h64.325818V402.618182H727.179636v33.698909h63.301819v175.197091h42.914909z" fill="#07C160" p-id="11979"></path></svg>