<?xml version="1.0" standalone="no"?><!DOCTYPE svg PUBLIC "-//W3C//DTD SVG 1.1//EN" "http://www.w3.org/Graphics/SVG/1.1/DTD/svg11.dtd"><svg t="1733322793386" class="icon" viewBox="0 0 1024 1024" version="1.1" xmlns="http://www.w3.org/2000/svg" p-id="18442" xmlns:xlink="http://www.w3.org/1999/xlink" width="128" height="128"><path d="M296.405358 119.27781h562.09668a11.331392 11.331392 0 0 1 11.331392 11.331392v562.09668A142.238789 142.238789 0 0 1 727.594642 834.944671H165.497962a11.331392 11.331392 0 0 1-11.331392-11.331392V261.516599A142.238789 142.238789 0 0 1 296.405358 119.27781z" fill="#6FB737" p-id="18443"></path><path d="M425.523588 536.750146l92.440303-51.885848A143.431567 143.431567 0 0 0 571.638905 290.739662l-39.361677-72.163075a241.239371 241.239371 0 0 1-22.36459 61.428072 232.59173 232.59173 0 0 1-92.142108 93.931276l-63.813628 35.783343-92.440303 51.885847A143.133372 143.133372 0 0 0 206.648806 656.027956l40.554456 72.461269a238.55562 238.55562 0 0 1 22.364589-61.428072A232.59173 232.59173 0 0 1 362.902737 573.428072z" fill="#FFFFFF" p-id="18444"></path><path d="M496.792079 708.211998l63.813629-35.783343 92.440302-51.885848a142.835178 142.835178 0 0 0 54.569599-194.721025l-40.554456-72.461269a226.627839 226.627839 0 0 1-22.364589 61.428072 231.697146 231.697146 0 0 1-91.843914 93.931275l-64.111823 36.081538-92.440303 51.587653a143.133372 143.133372 0 0 0-54.569598 195.019219L382.285381 864.764123a226.627839 226.627839 0 0 1 22.36459-61.428072 233.188119 233.188119 0 0 1 92.142108-95.124053z" fill="#FFFFFF" p-id="18445"></path><path d="M817.351194 585.952242l-40.554456-72.163075a228.417006 228.417006 0 0 1-22.364589 61.129878A231.398952 231.398952 0 0 1 661.097263 669.148515l-63.813629 35.783343-92.440303 51.885847A143.133372 143.133372 0 0 0 452.361095 951.53873l40.85265 72.46127a230.802563 230.802563 0 0 1 114.208503-155.359348l64.111823-36.081537 92.142108-51.587653a143.133372 143.133372 0 0 0 53.675015-195.01922z" fill="#FFFFFF" p-id="18446"></path></svg>