<?xml version="1.0" standalone="no"?><!DOCTYPE svg PUBLIC "-//W3C//DTD SVG 1.1//EN" "http://www.w3.org/Graphics/SVG/1.1/DTD/svg11.dtd"><svg t="1733322966957" class="icon" viewBox="0 0 1024 1024" version="1.1" xmlns="http://www.w3.org/2000/svg" p-id="31913" xmlns:xlink="http://www.w3.org/1999/xlink" width="128" height="128"><path d="M604.672 659.968V491.52l216.576 102.912v182.272z" p-id="31914"></path><path d="M622.08 646.144V512l192.512 92.672v144.384l-192.512-102.912z" fill="#7E3D8F" p-id="31915"></path><path d="M604.672 491.52l206.336-89.088L1020.416 501.76l-188.928 99.84L604.672 491.52z" p-id="31916"></path><path d="M638.976 494.592l168.448-72.192 178.688 82.432-161.28 82.432-185.856-92.672z" fill="#7E3D8F" p-id="31917"></path><path d="M817.664 598.016l3.584 178.688 202.752-99.84-3.584-175.104-202.752 96.256z" p-id="31918"></path><path d="M838.656 604.672v144.384l164.864-82.432v-147.968l-164.864 86.016z" fill="#7E3D8F" p-id="31919"></path><path d="M295.424 484.352V315.904L512 419.328v182.272L295.424 484.352z" p-id="31920"></path><path d="M312.832 470.528V336.896l192.512 92.672v147.968L312.832 470.528z" fill="#6284C2" p-id="31921"></path><path d="M295.424 315.904L501.76 230.4l209.408 96.256L522.24 425.984 295.424 315.904z" p-id="31922"></path><path d="M329.728 319.488l168.448-72.192 178.688 82.432-161.28 82.432-185.856-92.672z" fill="#6284C2" p-id="31923"></path><path d="M508.416 422.4l3.584 178.688L714.752 501.76l-3.584-175.104-202.752 95.744z" p-id="31924"></path><path d="M529.408 429.568v144.384L694.272 491.52V347.136l-164.864 82.432z" fill="#6284C2" p-id="31925"></path><path d="M0 649.216V481.28l212.992 102.912 3.584 182.272L0 649.216z" p-id="31926"></path><path d="M17.408 635.904V501.76L209.92 594.432v144.384L17.408 635.904z" fill="#C5773E" p-id="31927"></path><path d="M0 481.28l206.336-89.6L415.744 491.52l-192.512 99.84L0 481.28z" p-id="31928"></path><path d="M30.72 484.352l172.032-72.192 178.688 82.432L220.16 577.536 30.72 484.352z" fill="#C5773E" p-id="31929"></path><path d="M212.992 587.776l3.584 178.688 202.752-99.84-3.584-175.104-202.752 96.256z" p-id="31930"></path><path d="M230.4 594.432l3.584 144.384 164.864-82.432-3.584-147.968L230.4 594.432z" fill="#C5773E" p-id="31931"></path><path d="M312.832 673.28V505.344l212.992 102.912 3.584 185.344-216.576-120.32z" p-id="31932"></path><path d="M329.728 663.04v-137.216l192.512 92.672v147.968l-192.512-103.424z" fill="#DFCB38" p-id="31933"></path><path d="M312.832 505.344l206.336-86.016 209.408 96.256-192.512 99.84-223.232-110.08z" p-id="31934"></path><path d="M343.552 512l172.032-72.192 178.688 82.432-164.864 78.848L343.552 512z" fill="#DFCB38" p-id="31935"></path><path d="M525.824 611.84l3.584 182.272 199.168-102.912v-175.104l-202.752 95.744z" p-id="31936"></path><path d="M542.72 618.496l3.584 144.384 164.864-78.848-3.584-147.968-164.864 82.432z" fill="#DFCB38" p-id="31937"></path></svg>